<svg id="Layer_1" height="40" viewBox="0 0 75 75" width="40" xmlns="http://www.w3.org/2000/svg" data-name="Layer 1"><path d="m60.654 62.25h-46.308a.75.75 0 0 1 -.75-.75v-38.916a.75.75 0 0 1 .75-.75h46.308a.75.75 0 0 1 .75.75v38.916a.75.75 0 0 1 -.75.75zm-45.554-1.5h44.8v-37.416h-44.8z"/><path d="m60.654 23.334h-46.308a.751.751 0 0 1 -.679-1.071l4.3-9.084a.751.751 0 0 1 .679-.429h37.713a.751.751 0 0 1 .679.429l4.3 9.084a.751.751 0 0 1 -.679 1.071zm-45.124-1.5h43.94l-3.586-7.584h-36.768z"/><path d="m43.605 34.7a.748.748 0 0 1 -.313-.068l-2.739-1.258-2.74 1.258a.752.752 0 0 1 -.626 0l-2.74-1.258-2.739 1.256a.75.75 0 0 1 -1.063-.682v-11.364a.75.75 0 0 1 .75-.75h12.21a.75.75 0 0 1 .75.75v11.364a.748.748 0 0 1 -.75.75zm-9.158-2.9a.743.743 0 0 1 .313.069l2.74 1.258 2.74-1.258a.752.752 0 0 1 .626 0l1.989.913v-9.448h-10.71v9.444l1.989-.913a.743.743 0 0 1 .313-.065z"/><path d="m43.605 23.334h-12.205a.751.751 0 0 1 -.74-.877l1.564-9.084a.75.75 0 0 1 .739-.623h9.084a.75.75 0 0 1 .739.623l1.564 9.084a.751.751 0 0 1 -.74.877zm-11.32-1.5h10.43l-1.305-7.584h-7.82z"/><path d="m55.359 57.216h-14.53a.75.75 0 0 1 -.75-.75v-10.666a.75.75 0 0 1 .75-.75h14.53a.75.75 0 0 1 .75.75v10.666a.75.75 0 0 1 -.75.75zm-13.78-1.5h13.03v-9.171h-13.03z"/><path d="m51.646 50.055h-7.1a.75.75 0 0 1 0-1.5h7.1a.75.75 0 0 1 0 1.5z"/><path d="m51.646 53.706h-7.1a.75.75 0 0 1 0-1.5h7.1a.75.75 0 0 1 0 1.5z"/></svg>