<?xml version="1.0" encoding="UTF-8"?>
<svg xmlns="http://www.w3.org/2000/svg" xmlns:xlink="http://www.w3.org/1999/xlink" id="Layer_1" data-name="Layer 1" viewBox="0 0 512 512" width="512" height="512"><defs><linearGradient id="linear-gradient" x1="276.213" y1="456" x2="276.213" y2="72.62" gradientUnits="userSpaceOnUse"><stop offset="0.322" stop-color="#a163f5"/><stop offset="0.466" stop-color="#b074ee"/><stop offset="0.752" stop-color="#d8a1dd"/><stop offset="0.898" stop-color="#efbad3"/></linearGradient><linearGradient id="linear-gradient-2" x1="109.843" y1="456" x2="109.843" y2="72.62" xlink:href="#linear-gradient"/><linearGradient id="linear-gradient-3" x1="456.116" y1="456" x2="456.116" y2="72.62" xlink:href="#linear-gradient"/><linearGradient id="linear-gradient-4" x1="369.548" y1="456" x2="369.548" y2="72.62" xlink:href="#linear-gradient"/><linearGradient id="linear-gradient-6" x1="264.015" y1="456" x2="264.015" y2="72.62" xlink:href="#linear-gradient"/><linearGradient id="linear-gradient-7" x1="381" y1="456" x2="381" y2="72.62" xlink:href="#linear-gradient"/><linearGradient id="linear-gradient-9" x1="256" y1="456" x2="256" y2="72.62" xlink:href="#linear-gradient"/></defs><path d="M281.991,455H270.436a6,6,0,1,0,0,12h11.555a6,6,0,0,0,0-12Z" style="fill:url(#linear-gradient)"/><path d="M115.651,458H104.034a6,6,0,1,0,0,12h11.617a6,6,0,0,0,0-12Z" style="fill:url(#linear-gradient-2)"/><path d="M461.924,458H450.307a6,6,0,0,0,0,12h11.617a6,6,0,0,0,0-12Z" style="fill:url(#linear-gradient-3)"/><path d="M363.739,330h11.617a6,6,0,0,0,0-12H363.739a6,6,0,0,0,0,12Z" style="fill:url(#linear-gradient-4)"/><path d="M270.436,179h11.555a6,6,0,0,0,0-12H270.436a6,6,0,0,0,0,12Z" style="fill:url(#linear-gradient)"/><path d="M246.123,128h6.409A45.335,45.335,0,0,0,297.5,87.609,30.818,30.818,0,0,0,296.167,26h-8.545c-8.3-10-20.945-17-35.09-17h-6.409A45.317,45.317,0,0,0,201,54.384v28.3A45.261,45.261,0,0,0,246.123,128Zm50.044-90a18.93,18.93,0,0,1,18.978,18.8c0,9.86-8.145,17.9-17.145,18.719V54.384A43.967,43.967,0,0,0,294.636,38ZM213,54.384A33.3,33.3,0,0,1,246.123,21h6.409A33.6,33.6,0,0,1,286,54.384v6.738c-6-2.6-11.5-13.8-12.776-17.356a6.085,6.085,0,0,0-4.4-3.851,6.014,6.014,0,0,0-5.6,1.558A66.755,66.755,0,0,1,216.129,61H213ZM213,73h3.129a78.853,78.853,0,0,0,49.259-17.373,59.035,59.035,0,0,0,3.785,6.02C274.985,69.865,281,72.832,286,73.514V82.68A33.543,33.543,0,0,1,252.532,116h-6.409A33.248,33.248,0,0,1,213,82.68Z" style="fill:url(#linear-gradient-6)"/><path d="M381,36.77a6,6,0,0,0-6,6v3.563a6,6,0,0,0,12,0V42.77A6,6,0,0,0,381,36.77Z" style="fill:url(#linear-gradient-7)"/><path d="M381,58.311a6,6,0,0,0-6,6V87.543a6,6,0,0,0,12,0V64.311A6,6,0,0,0,381,58.311Z" style="fill:url(#linear-gradient-7)"/><path d="M458.246,424H441.232C462.053,418,477,399.378,477,376.9V338h2.105a6.048,6.048,0,0,0,6-6.056,31.5,31.5,0,0,0-31.441-31.469,30.912,30.912,0,0,1-8.978-1.363c-6.568-1.992-11.8-3.01-15.55-3.01a48.113,48.113,0,0,0-27.634,8.784C394.073,289.865,381.482,283,371.678,283H354.664C375.485,277,391,258.521,391,236.041V197h1.537a5.987,5.987,0,0,0,6-5.985A31.47,31.47,0,0,0,367.1,159.582c-.032,0-.064,0-.1,0V110h97.726a6.44,6.44,0,0,0,5.047-2.292,6.043,6.043,0,0,0-.21-7.816l-31.781-35.3L469.563,29.23a6.077,6.077,0,0,0-2.167-9.65,7.086,7.086,0,0,0-2.909-.58H367.358c-.126-8-8.211-15.33-17.245-12.888A13.94,13.94,0,0,0,340,19.645V155.3a48.26,48.26,0,0,0-27.322,10.207c-2.385-18.777-18.2-33.5-37.592-33.5H223.672a38.563,38.563,0,0,0-36.426,26.833q-1.137-.255-2.264-.595c-6.566-1.993-11.843-3-15.595-3A48.437,48.437,0,0,0,121,203.579v32.462C121,258.521,136.515,277,157.336,283H143.411a38.308,38.308,0,0,0-32.292,17.751,31.4,31.4,0,0,0-3.727-.267,30.919,30.919,0,0,1-8.979-1.367C91.845,297.124,86.852,296.1,83.1,296.1A48.185,48.185,0,0,0,35,344.436V376.9c0,22.48,14.947,41.1,35.768,47.1H56.843A37.69,37.69,0,0,0,19,461.906v38.326A5.511,5.511,0,0,0,24.644,506H487.356A5.511,5.511,0,0,0,493,500.232V466.579C493,447.161,477.7,424,458.246,424ZM367,31h84.626L425.249,60.423a6.174,6.174,0,0,0,0,8.162L451.626,98H367Zm98,312.994A15.9,15.9,0,0,1,460.4,338H465Zm-72,.442A36.294,36.294,0,0,1,429.239,308.1c2.46,0,6.755.906,11.962,2.486a42.955,42.955,0,0,0,12.464,1.922A19.264,19.264,0,0,1,472.158,326H428.135A14.76,14.76,0,0,0,413.2,340.707,13.343,13.343,0,0,1,399.674,354H393ZM393,366h6.674A25.356,25.356,0,0,0,425.2,340.707,2.753,2.753,0,0,1,428.135,338h19.881A25.032,25.032,0,0,0,465,356.883V376.9a36,36,0,1,1-72,0Zm-21.322-71c8.709,0,16.714,8.971,20.573,18.432a47.827,47.827,0,0,0-11.251,31V376.9a48.58,48.58,0,0,0,.83,10.1H294.2a48.812,48.812,0,0,0,2.982-11.781A30.623,30.623,0,0,0,295.855,314h-5.13a22.949,22.949,0,0,1,22.733-19Zm-77.37,31h1.547A18.57,18.57,0,0,1,297,363.1V342.476C297,336.6,296.355,331,294.308,326ZM379,203.137c-2-1.38-4.229-3.137-5.173-6.137H379ZM352,18.5a1.5,1.5,0,0,1,3,0V157.346q-1.555-.422-3-.759ZM306,203.579a36.48,36.48,0,0,1,36.455-36.341c2.462,0,6.916.906,12.121,2.486a43.055,43.055,0,0,0,12.492,1.85A19.237,19.237,0,0,1,385.59,185H341.566a14.759,14.759,0,0,0-14.937,14.707A13.344,13.344,0,0,1,313.106,213H306ZM306,225h7.106a25.356,25.356,0,0,0,25.523-25.293A2.753,2.753,0,0,1,341.566,197h19.882A24.279,24.279,0,0,0,379,216.026v20.015a36.5,36.5,0,0,1-73,0Zm24.473,58H313.458a34.993,34.993,0,0,0-33.314,23.853A45.164,45.164,0,0,0,252.255,297H246.5a45.09,45.09,0,0,0-18.429,4.134A37.749,37.749,0,0,0,195.452,283H181.528c16.986-4.895,30.528-18.1,34.941-35h79.062C299.944,264.9,313.486,278.105,330.473,283Zm-57.7,48.619a5.82,5.82,0,0,0-4.219-3.85,5.933,5.933,0,0,0-5.509,1.713A66.134,66.134,0,0,1,216.437,349H213v-6.524A33.707,33.707,0,0,1,246.5,309h5.752C270.583,309,285,324.148,285,342.476v6.316C279,346.177,274.031,335.133,272.773,331.619ZM285,361.193v8.751A32.7,32.7,0,0,1,252.255,403H246.5c-18.327,0-33.5-14.729-33.5-33.056V361h3.437A78.436,78.436,0,0,0,265.3,343.631a52.218,52.218,0,0,0,3.371,5.851C274.433,357.628,281,360.505,285,361.193ZM206,203.137A8.884,8.884,0,0,1,200.691,197H206ZM223.672,144h51.414C289.533,144,301,155.984,301,170.43V178.6a47.913,47.913,0,0,0-7,24.98V236H218V197h1.4a5.987,5.987,0,0,0,6-5.985,31.478,31.478,0,0,0-25.852-30.926A26.421,26.421,0,0,1,223.672,144ZM133,203.579a36.422,36.422,0,0,1,36.387-36.341c2.462,0,6.882.906,12.087,2.486a42.941,42.941,0,0,0,12.475,1.85A19.214,19.214,0,0,1,212.453,185H168.43a14.76,14.76,0,0,0-14.938,14.707A13.343,13.343,0,0,1,139.969,213H133Zm0,32.462V225h6.969a25.356,25.356,0,0,0,25.523-25.293A2.753,2.753,0,0,1,168.43,197h19.882A24.439,24.439,0,0,0,206,216.026v20.015a36.5,36.5,0,0,1-73,0ZM143.411,295h52.041a25.945,25.945,0,0,1,22.416,12.559,46.269,46.269,0,0,0-10.7,12.872A5.847,5.847,0,0,0,202.22,318H190.6a6,6,0,0,0,0,12H202.22c.325,0,.508-.243.819-.293A43.738,43.738,0,0,0,201,342.476v27.468A45,45,0,0,0,204.555,387H130.17a48.58,48.58,0,0,0,.83-10.1V338h1.832a6.048,6.048,0,0,0,6-6.056,31.376,31.376,0,0,0-15.809-27.215A26.278,26.278,0,0,1,143.411,295ZM47,344.436A36.179,36.179,0,0,1,83.1,308.1c2.459,0,6.738.906,11.945,2.486a42.554,42.554,0,0,0,12.4,1.922A19.19,19.19,0,0,1,125.885,326H81.862a14.76,14.76,0,0,0-14.938,14.707A13.343,13.343,0,0,1,53.4,354H47ZM119,338v5.994A16.666,16.666,0,0,1,114.123,338ZM47,376.9V366h6.4a25.356,25.356,0,0,0,25.523-25.293A2.753,2.753,0,0,1,81.862,338h19.882A23.751,23.751,0,0,0,119,356.883V376.9a36,36,0,1,1-72,0ZM135,494H31V461.906A25.678,25.678,0,0,1,56.843,436h52.041A25.909,25.909,0,0,1,135,461.906Zm166,0H197V458.185C197,443.739,209.226,432,223.672,432h51.414A25.974,25.974,0,0,1,301,458.185Zm64-35.184V494H313V458.185A37.988,37.988,0,0,0,275.086,420H223.672C202.609,420,185,437.122,185,458.185V494H147V461.906A37.922,37.922,0,0,0,108.884,424H94.959a50.905,50.905,0,0,0,30.953-25h85.824A44.78,44.78,0,0,0,246.5,415h5.752a44.78,44.78,0,0,0,34.768-16h99.065a50.905,50.905,0,0,0,30.953,25H400.027A34.829,34.829,0,0,0,365,458.816ZM481,494H377V458.816A22.816,22.816,0,0,1,400.027,436h58.219c11.9,0,22.754,17.1,22.754,30.579Z" style="fill:url(#linear-gradient-9)"/></svg>
