<svg id="Capa_1" enable-background="new 0 0 512.003 512.003" height="40" viewBox="0 0 512.003 512.003" width="40" xmlns="http://www.w3.org/2000/svg"><g><path d="m180.069 225.003v30c0 20.181 13.354 37.3 31.689 42.989l28.459 201.113c1.047 7.398 7.38 12.898 14.852 12.898s13.805-5.5 14.852-12.898l28.46-201.113c18.335-5.689 31.688-22.809 31.688-42.989v-30c0-8.284-6.716-15-15-15h-120c-8.284 0-15 6.715-15 15zm75 164.943-12.728-89.944h25.456zm-45-149.943h90v15c0 8.271-6.729 15-15 15h-60c-8.271 0-15-6.729-15-15z"/><path d="m330.069 135.003c0-36.213-19.07-55.283-34.394-70.607-14.307-14.307-25.606-25.607-25.606-49.393 0-7.357-5.335-13.628-12.597-14.806-7.262-1.179-14.307 3.083-16.633 10.063l-22.325 66.975-12.838-12.838c-4.29-4.29-10.742-5.573-16.347-3.252-5.605 2.322-9.26 7.791-9.26 13.858v60c0 41.355 33.645 75 75 75s75-33.645 75-75zm-75 45c-24.813 0-45-20.187-45-45v-23.787l4.394 4.393c3.676 3.676 8.994 5.187 14.053 3.992 5.06-1.194 9.14-4.923 10.784-9.855l15.502-46.507c6.08 8.79 13.204 15.914 19.661 22.371 14.307 14.307 25.606 25.607 25.606 49.393 0 24.813-20.187 45-45 45z"/><path d="m121.934 105.003c0-8.284-6.716-15-15-15h-30c-8.284 0-15 6.716-15 15s6.716 15 15 15h30c8.284 0 15-6.716 15-15z"/><path d="m142.569 17.012-25.981-15c-7.176-4.143-16.349-1.684-20.49 5.49-4.142 7.174-1.684 16.348 5.49 20.49l25.981 15c7.15 4.128 16.335 1.708 20.49-5.49 4.142-7.174 1.684-16.348-5.49-20.49z"/><path d="m127.569 167.012-25.981 15c-7.174 4.142-9.632 13.316-5.49 20.49 4.155 7.197 13.337 9.62 20.49 5.49l25.981-15c7.174-4.142 9.632-13.316 5.49-20.49s-13.316-9.632-20.49-5.49z"/><path d="m435.069 90.003h-30c-8.284 0-15 6.716-15 15s6.716 15 15 15h30c8.284 0 15-6.716 15-15s-6.716-15-15-15z"/><path d="m384.434 42.993 25.98-15c7.175-4.142 9.633-13.316 5.49-20.49-4.142-7.175-13.317-9.631-20.49-5.49l-25.98 15c-7.175 4.142-9.633 13.316-5.49 20.49 4.155 7.197 13.336 9.62 20.49 5.49z"/><path d="m410.414 182.012-25.98-15c-7.175-4.142-16.349-1.684-20.49 5.49-4.143 7.174-1.685 16.348 5.49 20.49l25.98 15c7.15 4.127 16.334 1.709 20.49-5.49 4.143-7.174 1.685-16.348-5.49-20.49z"/></g></svg>